<?xml version="1.0" standalone="yes"?>

<svg version="1.1" viewBox="0.0 0.0 413.5800524934383 120.24409448818898" fill="none" stroke="none" stroke-linecap="square" stroke-miterlimit="10" xmlns="http://www.w3.org/2000/svg" xmlns:xlink="http://www.w3.org/1999/xlink"><clipPath id="p.0"><path d="m0 0l413.58005 0l0 120.244095l-413.58005 0l0 -120.244095z" clip-rule="nonzero"></path></clipPath><g clip-path="url(#p.0)"><path fill="#000000" fill-opacity="0.0" d="m0 0l413.58005 0l0 120.244095l-413.58005 0z" fill-rule="nonzero"></path><path fill="#2ac1de" d="m8.21916 60.120914l0 0c0 -29.271093 23.728909 -53.0 53.0 -53.0l0 0c14.056473 0 27.537231 5.5839124 37.476654 15.52334c9.93943 9.93943 15.523346 23.420185 15.523346 37.47666l0 0c0 29.271091 -23.728912 52.999996 -53.0 52.999996l0 0c-29.271093 0 -53.0 -23.728905 -53.0 -52.999996z" fill-rule="nonzero"></path><path fill="#ffffff" d="m38.08132 52.49759l23.256565 51.257263l23.256565 -51.257263z" fill-rule="nonzero"></path><path fill="#2ac1de" d="m68.00735 98.37293l-16.926617 4.446991l1.008255 3.872757l16.926617 -4.446991z" fill-rule="nonzero"></path><path fill="#ffffff" d="m79.23969 38.350014l0 0c0 -9.168535 -8.012527 -16.6011 -17.896473 -16.6011l0 0c-9.883949 0 -17.896473 7.4325657 -17.896473 16.6011l0 0c0 9.168537 8.012524 16.601105 17.896473 16.601105l0 0c9.883945 0 17.896473 -7.4325676 17.896473 -16.601105z" fill-rule="nonzero"></path><path fill="#2ac1de" d="m85.88286 50.912636l0 0c0 -6.026619 -10.990776 -10.912159 -24.548595 -10.912159l0 0c-13.557816 0 -24.5486 4.88554 -24.5486 10.912159l0 0c0 6.026619 10.990784 10.912155 24.5486 10.912155l0 0c13.557819 0 24.548595 -4.885536 24.548595 -10.912155z" fill-rule="nonzero"></path><path fill="#ffffff" d="m84.596306 48.373158l0 0c0 -5.405239 -10.412315 -9.787056 -23.256565 -9.787056l0 0c-12.844246 0 -23.256569 4.381817 -23.256569 9.787056l0 0c0 5.405243 10.412323 9.787056 23.256569 9.787056l0 0c12.84425 0 23.256565 -4.381813 23.256565 -9.787056z" fill-rule="nonzero"></path><path fill="#ffffff" d="m84.59625 45.601463l-46.51313 0l0 3.0915298l46.51313 0z" fill-rule="nonzero"></path><path fill="#ffffff" d="m48.450474 45.0174l0 0c0 -4.1292953 -2.831028 -7.476753 -6.3232765 -7.476753l0 0c-1.6770363 0 -3.285389 0.78772736 -4.4712334 2.189888c-1.1858406 1.4021645 -1.8520432 3.3039055 -1.8520432 5.286865l0 0c0 4.129299 2.831028 7.476757 6.3232765 7.476757l0 0c3.4922485 0 6.3232765 -3.347458 6.3232765 -7.476757z" fill-rule="nonzero"></path><path fill="#ffffff" d="m86.6344 45.698456l0 0c0 -4.5054398 -2.8310242 -8.157825 -6.3232727 -8.157825l0 0c-1.6770401 0 -3.2853928 0.8594818 -4.471237 2.3893738c-1.1858444 1.5298882 -1.8520432 3.6048622 -1.8520432 5.7684517l0 0c0 4.5054436 2.8310318 8.157829 6.3232803 8.157829l0 0c3.4922485 0 6.3232727 -3.6523857 6.3232727 -8.157829z" fill-rule="nonzero"></path><path fill="#ffffff" d="m82.74428 47.477184l0 0c0 -4.1292953 -2.8310242 -7.476753 -6.3232727 -7.476753l0 0c-1.6770401 0 -3.2853851 0.78772736 -4.4712296 2.189888c-1.1858444 1.4021645 -1.8520432 3.3039055 -1.8520432 5.286865l0 0c0 4.129299 2.8310242 7.476757 6.3232727 7.476757l0 0c3.4922485 0 6.3232727 -3.347458 6.3232727 -7.476757z" fill-rule="nonzero"></path><path fill="#ffffff" d="m82.74437 49.744976l0 0c0 -4.129299 -2.2234192 -7.476757 -4.9661407 -7.476757l0 0c-1.3171082 0 -2.5802612 0.78772736 -3.5115967 2.1898918c-0.9313278 1.4021606 -1.4545517 3.3039055 -1.4545517 5.286865l0 0c0 4.1292953 2.2234192 7.476753 4.9661484 7.476753l0 0c2.7427216 0 4.9661407 -3.347458 4.9661407 -7.476753z" fill-rule="nonzero"></path><path fill="#ffffff" d="m76.73549 52.213882l0 0c0 -4.1292953 -2.8310242 -7.476753 -6.3232727 -7.476753l0 0c-1.6770325 0 -3.2853851 0.78772736 -4.4712296 2.1898918c-1.1858444 1.4021606 -1.8520432 3.3039055 -1.8520432 5.2868614l0 0c0 4.129299 2.8310242 7.476757 6.3232727 7.476757l0 0c3.4922485 0 6.3232727 -3.347458 6.3232727 -7.476757z" fill-rule="nonzero"></path><path fill="#ffffff" d="m61.846615 52.21387l0 0c0 -4.129299 -2.831028 -7.476757 -6.3232765 -7.476757l0 0c-1.6770363 0 -3.285389 0.78772736 -4.4712296 2.1898918c-1.1858444 1.4021645 -1.852047 3.3039055 -1.852047 5.286865l0 0c0 4.129299 2.831028 7.476757 6.3232765 7.476757l0 0c3.4922485 0 6.3232765 -3.347458 6.3232765 -7.476757z" fill-rule="nonzero"></path><path fill="#ffffff" d="m47.2966 48.372936l0 0c0 -4.129299 -1.926712 -7.476757 -4.3034325 -7.476757l0 0c-1.1413422 0 -2.2359352 0.78772736 -3.0429878 2.1898918c-0.8070488 1.4021645 -1.2604446 3.3039055 -1.2604446 5.286865l0 0c0 4.129299 1.926712 7.476757 4.3034325 7.476757l0 0c2.3767204 0 4.3034325 -3.347458 4.3034325 -7.476757z" fill-rule="nonzero"></path><path fill="#ffffff" d="m55.01969 50.911156l0 0c0 -4.1292953 -2.764511 -7.476753 -6.1747093 -7.476753l0 0c-1.6376343 0 -3.2081947 0.78772736 -4.3661804 2.189888c-1.1579819 1.4021645 -1.8085289 3.3039055 -1.8085289 5.286865l0 0c0 4.129299 2.764511 7.476757 6.1747093 7.476757l0 0c3.4101982 0 6.1747093 -3.347458 6.1747093 -7.476757z" fill-rule="nonzero"></path><path fill="#ffffff" d="m68.88191 53.078243l0 0c0 -4.129299 -2.8310242 -7.476757 -6.3232765 -7.476757l0 0c-1.6770363 0 -3.2853851 0.78772736 -4.4712296 2.1898918c-1.1858444 1.4021645 -1.852047 3.3039055 -1.852047 5.286865l0 0c0 4.129299 2.831028 7.476757 6.3232765 7.476757l0 0c3.4922523 0 6.3232765 -3.347458 6.3232765 -7.476757z" fill-rule="nonzero"></path><path fill="#000000" fill-opacity="0.0" d="m116.24672 25.69685l317.63782 0l0 68.85039l-317.63782 0z" fill-rule="nonzero"></path><path fill="#2ac1de" d="m128.96547 73.568924l0 -26.093754q0 -0.390625 0.28125 -0.671875q0.28125 -0.28125 0.671875 -0.28125q0.40625 0 0.703125 0.28125q0.3125 0.28125 0.3125 0.671875l0 11.28125q1.3125 -1.75 3.265625 -2.78125q1.96875 -1.046875 4.25 -1.046875q3.953125 0 6.71875 2.875q2.765625 2.875 2.765625 6.937504q0 4.0625 -2.765625 6.921875q-2.765625 2.859375 -6.71875 2.859375q-2.28125 0 -4.25 -1.015625q-1.953125 -1.03125 -3.265625 -2.78125l0 2.84375q0 0.390625 -0.3125 0.671875q-0.296875 0.28125 -0.703125 0.28125q-0.390625 0 -0.671875 -0.28125q-0.28125 -0.28125 -0.28125 -0.671875zm1.96875 -9.125l0 0.3125q0 3.25 2.21875 5.53125q2.21875 2.28125 5.3125 2.28125q3.09375 0 5.296875 -2.28125q2.203125 -2.28125 2.203125 -5.546875q0 -3.2656288 -2.203125 -5.562504q-2.203125 -2.296875 -5.28125 -2.296875q-3.078125 0 -5.265625 2.203125q-2.171875 2.203125 -2.28125 5.359379zm24.478104 9.125l0 -17.687504q0 -0.40625 0.265625 -0.671875q0.28125 -0.28125 0.703125 -0.28125q0.421875 0 0.703125 0.28125q0.28125 0.265625 0.28125 0.671875l0 17.687504q0 0.390625 -0.296875 0.671875q-0.296875 0.28125 -0.703125 0.28125q-0.40625 0 -0.6875 -0.28125q-0.265625 -0.28125 -0.265625 -0.671875zm0 -23.171879l0 -0.921875q0 -0.390625 0.265625 -0.671875q0.28125 -0.28125 0.6875 -0.28125q0.40625 0 0.703125 0.28125q0.296875 0.28125 0.296875 0.671875l0 0.921875q0 0.4375 -0.296875 0.75q-0.296875 0.296875 -0.703125 0.296875q-0.40625 0 -0.6875 -0.296875q-0.265625 -0.3125 -0.265625 -0.75zm17.068115 4.53125q0.359375 0 0.65625 0.296875q0.3125 0.296875 0.3125 0.65625q0 0.359375 -0.3125 0.65625q-0.296875 0.296875 -0.65625 0.296875l-2.515625 0l0 14.281254q0 0.640625 0.5 1.046875q0.5 0.40625 0.890625 0.40625q0.40625 0 0.71875 0.328125q0.328125 0.3125 0.328125 0.671875q0 0.359375 -0.328125 0.65625q-0.3125 0.296875 -0.671875 0.296875q-1.46875 0 -2.453125 -0.953125q-0.984375 -0.96875 -0.984375 -2.453125l0 -14.281254l-2.4375 0q-0.640625 0 -0.796875 -0.234375q-0.15625 -0.234375 -0.15625 -0.625q0 -0.40625 0.03125 -0.578125q0.125 -0.46875 0.921875 -0.46875l2.4375 0l0 -7.28125q0 -0.359375 0.296875 -0.65625q0.3125 -0.3125 0.6875 -0.3125q0.375 0 0.6875 0.3125q0.328125 0.296875 0.328125 0.65625l0 7.28125l2.515625 0zm11.718735 -1.53125q0.09375 4.0 8.09375 5.53125l0.078125 0q4.59375 0.828125 7.109375 2.546875q3.09375 2.0 3.09375 5.312504q0 3.296875 -3.109375 5.546875q-3.09375 2.234375 -7.265625 2.234375q-5.265625 -0.046875 -10.3125 -4.046875q-0.640625 -0.5625 -0.125 -1.234375q0.25 -0.28125 0.609375 -0.3125q0.359375 -0.046875 0.640625 0.1875q4.515625 3.640625 9.1875 3.59375q3.6875 0 6.171875 -1.828125q2.390625 -1.71875 2.390625 -4.171875q0 -4.468754 -8.75 -6.109379l-0.078125 0q-9.484375 -1.765625 -9.484375 -7.25q0 -3.109375 2.859375 -5.1875q2.859375 -2.09375 6.8125 -2.09375q1.71875 0 3.453125 0.59375q1.75 0.578125 2.703125 1.125q0.96875 0.53125 2.484375 1.53125q0.71875 0.46875 0.25 1.234375q-0.4375 0.71875 -1.203125 0.234375q-1.4375 -0.90625 -2.34375 -1.421875q-0.890625 -0.53125 -2.390625 -1.03125q-1.5 -0.5 -2.953125 -0.5q-3.359375 0 -5.71875 1.6875q-2.203125 1.640625 -2.203125 3.828125zm33.773727 21.125004q-4.203125 0 -7.15625 -2.859375q-2.9375 -2.859375 -2.9375 -6.953125q0 -4.109379 2.9375 -6.937504q2.953125 -2.84375 6.8125 -2.84375q3.859375 0 6.578125 2.15625q0.3125 0.203125 0.359375 0.609375q0.046875 0.390625 -0.234375 0.703125q-0.609375 0.6875 -1.328125 0.171875q-2.203125 -1.765625 -5.328125 -1.765625q-3.109375 0 -5.5 2.328125q-2.375 2.3125 -2.375 5.593754q0 3.28125 2.375 5.578125q2.390625 2.296875 5.484375 2.296875q3.109375 0 5.34375 -1.71875q0.71875 -0.515625 1.34375 0.203125q0.625 0.71875 -0.21875 1.359375q-2.6875 2.078125 -6.15625 2.078125zm15.949356 -2.890625q-2.71875 -2.90625 -2.71875 -6.90625q0 -4.000004 2.71875 -6.890629q2.71875 -2.90625 6.5625 -2.90625q3.84375 0 6.5625 2.90625q2.71875 2.890625 2.71875 6.890629q0 4.0 -2.71875 6.90625q-2.71875 2.890625 -6.5625 2.890625q-3.84375 0 -6.5625 -2.890625zm6.5625 -14.828129q-3.0 0 -5.1875 2.328125q-2.171875 2.3125 -2.171875 5.578129q0 3.25 2.171875 5.578125q2.1875 2.3125 5.1875 2.3125q3.0 0 5.171875 -2.3125q2.1875 -2.328125 2.1875 -5.578125q0 -3.2656288 -2.1875 -5.578129q-2.171875 -2.328125 -5.171875 -2.328125zm18.437454 14.828129q-2.71875 -2.90625 -2.71875 -6.90625q0 -4.000004 2.71875 -6.890629q2.71875 -2.90625 6.5625 -2.90625q3.84375 0 6.5625 2.90625q2.71875 2.890625 2.71875 6.890629q0 4.0 -2.71875 6.90625q-2.71875 2.890625 -6.5625 2.890625q-3.84375 0 -6.5625 -2.890625zm6.5625 -14.828129q-3.0 0 -5.1875 2.328125q-2.171875 2.3125 -2.171875 5.578129q0 3.25 2.171875 5.578125q2.1875 2.3125 5.1875 2.3125q3.0 0 5.171875 -2.3125q2.1875 -2.328125 2.1875 -5.578125q0 -3.2656288 -2.1875 -5.578129q-2.171875 -2.328125 -5.171875 -2.328125zm16.640594 24.953129l0 -25.875004q0 -0.40625 0.28125 -0.671875q0.28125 -0.28125 0.671875 -0.28125q0.40625 0 0.703125 0.28125q0.3125 0.265625 0.3125 0.671875l0 2.84375q1.265625 -1.765625 3.21875 -2.78125q1.96875 -1.015625 4.21875 -1.015625q3.953125 0 6.703125 2.84375q2.765625 2.828125 2.765625 6.859379q0 4.015625 -2.765625 6.890625q-2.75 2.875 -6.703125 2.875q-2.25 0 -4.21875 -1.03125q-1.953125 -1.046875 -3.21875 -2.796875l0 11.1875q0 0.40625 -0.3125 0.6875q-0.296875 0.28125 -0.703125 0.28125q-0.390625 0 -0.671875 -0.28125q-0.28125 -0.28125 -0.28125 -0.6875zm1.96875 -17.4375l0 0.328125q0 3.234375 2.1875 5.515625q2.203125 2.28125 5.25 2.3125q3.109375 -0.03125 5.3125 -2.3125q2.203125 -2.28125 2.203125 -5.515625q0 -3.2500038 -2.203125 -5.500004q-2.203125 -2.265625 -5.25 -2.265625q-3.03125 0 -5.21875 2.171875q-2.171875 2.15625 -2.28125 5.265629zm52.22809 10.203125l-14.390625 0q-0.40625 0 -0.6875 -0.28125q-0.28125 -0.28125 -0.28125 -0.671875l0 -26.093754q0 -0.390625 0.28125 -0.671875q0.28125 -0.28125 0.671875 -0.28125q0.40625 0 0.703125 0.28125q0.3125 0.28125 0.3125 0.671875l0 25.093754l13.390625 0q0.40625 0 0.703125 0.296875q0.296875 0.296875 0.296875 0.703125q0 0.390625 -0.296875 0.671875q-0.296875 0.28125 -0.703125 0.28125zm21.519989 -19.312504q0.28125 -0.28125 0.671875 -0.28125q0.40625 0 0.6875 0.28125q0.28125 0.265625 0.28125 0.671875l0 17.687504q0 0.390625 -0.28125 0.671875q-0.28125 0.28125 -0.6875 0.28125q-0.390625 0 -0.671875 -0.28125q-0.28125 -0.28125 -0.28125 -0.671875l0 -2.921875q-1.28125 1.796875 -3.21875 2.84375q-1.9375 1.03125 -4.140625 1.03125q-3.828125 0 -6.5625 -2.875q-2.71875 -2.890625 -2.71875 -6.921875q0 -4.046879 2.71875 -6.921879q2.734375 -2.875 6.5625 -2.875q2.203125 0 4.140625 1.046875q1.9375 1.03125 3.21875 2.78125l0 -2.875q0 -0.40625 0.28125 -0.671875zm-15.0 9.515629q0 3.28125 2.171875 5.578125q2.1875 2.296875 5.203125 2.296875q3.03125 0 5.1875 -2.296875q2.15625 -2.296875 2.15625 -5.578125q0 -3.2812538 -2.15625 -5.593754q-2.15625 -2.328125 -5.1875 -2.328125q-3.015625 0 -5.203125 2.328125q-2.171875 2.3125 -2.171875 5.593754zm24.963104 8.84375l0 -26.093754q0 -0.390625 0.28125 -0.671875q0.28125 -0.28125 0.671875 -0.28125q0.40625 0 0.703125 0.28125q0.3125 0.28125 0.3125 0.671875l0 11.28125q1.3125 -1.75 3.265625 -2.78125q1.96875 -1.046875 4.25 -1.046875q3.953125 0 6.71875 2.875q2.765625 2.875 2.765625 6.937504q0 4.0625 -2.765625 6.921875q-2.765625 2.859375 -6.71875 2.859375q-2.28125 0 -4.25 -1.015625q-1.953125 -1.03125 -3.265625 -2.78125l0 2.84375q0 0.390625 -0.3125 0.671875q-0.296875 0.28125 -0.703125 0.28125q-0.390625 0 -0.671875 -0.28125q-0.28125 -0.28125 -0.28125 -0.671875zm1.96875 -9.125l0 0.3125q0 3.25 2.21875 5.53125q2.21875 2.28125 5.3125 2.28125q3.09375 0 5.296875 -2.28125q2.203125 -2.28125 2.203125 -5.546875q0 -3.2656288 -2.203125 -5.562504q-2.203125 -2.296875 -5.28125 -2.296875q-3.078125 0 -5.265625 2.203125q-2.171875 2.203125 -2.28125 5.359379zm23.196838 7.28125q-0.6875 -0.609375 -0.125 -1.28125q0.234375 -0.328125 0.640625 -0.359375q0.40625 -0.046875 0.71875 0.234375q3.125 2.28125 5.671875 2.28125q2.5625 0 4.046875 -1.203125q1.484375 -1.0 1.453125 -2.328125q-0.015625 -1.34375 -1.3125 -2.375q-1.296875 -1.046875 -4.21875 -1.53125l-0.078125 -0.046875q-3.125 -0.546875 -4.4375 -1.5156288q-2.125 -1.234375 -2.125 -3.515625q0 -2.28125 2.125 -3.84375q1.921875 -1.3125 4.796875 -1.3125q1.15625 0 2.328125 0.375q1.1875 0.375 1.8125 0.71875q0.625 0.34375 1.703125 1.015625q0.3125 0.25 0.390625 0.65625q0.078125 0.390625 -0.125 0.71875q-0.1875 0.3125 -0.59375 0.390625q-0.390625 0.078125 -0.71875 -0.125q-1.0 -0.671875 -1.5 -0.96875q-0.5 -0.3125 -1.46875 -0.640625q-0.953125 -0.34375 -1.828125 -0.34375q-2.328125 0 -3.640625 1.0625q-1.3125 1.046875 -1.3125 2.21875q0 1.15625 1.109375 2.03125q1.40625 0.96875 4.0 1.359375l0.078125 0q2.609375 0.40625 4.765625 1.6093788q2.203125 1.4375 2.203125 3.859375q0 2.421875 -2.1875 4.046875q-2.171875 1.609375 -4.9375 1.609375q-3.796875 -0.046875 -7.234375 -2.796875z" fill-rule="nonzero"></path></g></svg>

