<?xml version="1.0" encoding="UTF-8" standalone="no"?>
<svg
   xmlns:dc="http://purl.org/dc/elements/1.1/"
   xmlns:cc="http://creativecommons.org/ns#"
   xmlns:rdf="http://www.w3.org/1999/02/22-rdf-syntax-ns#"
   xmlns:svg="http://www.w3.org/2000/svg"
   xmlns="http://www.w3.org/2000/svg"
   xmlns:sodipodi="http://sodipodi.sourceforge.net/DTD/sodipodi-0.dtd"
   xmlns:inkscape="http://www.inkscape.org/namespaces/inkscape"
   version="1.1"
   viewBox="0 0 327.02081 44.603119"
   stroke-miterlimit="10"
   id="svg2"
   inkscape:version="0.91 r13725"
   sodipodi:docname="-bitScoop labs with Logo 6.svg"
   width="327.02081"
   height="44.603119"
   style="fill:none;stroke:none;stroke-linecap:square;stroke-miterlimit:10">
  <metadata
     id="metadata51">
    <rdf:RDF>
      <cc:Work
         rdf:about="">
        <dc:format>image/svg+xml</dc:format>
        <dc:type
           rdf:resource="http://purl.org/dc/dcmitype/StillImage" />
        <dc:title></dc:title>
      </cc:Work>
    </rdf:RDF>
  </metadata>
  <defs
     id="defs49" />
  <sodipodi:namedview
     pagecolor="#ffffff"
     bordercolor="#666666"
     borderopacity="1"
     objecttolerance="10"
     gridtolerance="10"
     guidetolerance="10"
     inkscape:pageopacity="0"
     inkscape:pageshadow="2"
     inkscape:window-width="1920"
     inkscape:window-height="1151"
     id="namedview47"
     showgrid="false"
     fit-margin-top="0"
     fit-margin-left="0"
     fit-margin-right="0"
     fit-margin-bottom="0"
     inkscape:zoom="4.3557778"
     inkscape:cx="163.82788"
     inkscape:cy="-20.171339"
     inkscape:window-x="0"
     inkscape:window-y="23"
     inkscape:window-maximized="1"
     inkscape:current-layer="g7" />
  <clipPath
     id="p.0">
    <path
       d="m 0,0 352.38583,0 0,100 L 0,100 0,0 Z"
       id="path5"
       inkscape:connector-curvature="0"
       style="clip-rule:nonzero" />
  </clipPath>
  <g
     clip-path="url(#p.0)"
     id="g7"
     transform="translate(-9.828034,-28.22958)">
    <path
       d="m 0,0 352.38583,0 0,100 L 0,100 Z"
       id="path9"
       inkscape:connector-curvature="0"
       style="fill:#000000;fill-opacity:0;fill-rule:nonzero" />
    <path
       d="m 60.721786,0 292.913404,0 0,100 -292.913404,0 z"
       id="path11"
       inkscape:connector-curvature="0"
       style="fill:#000000;fill-opacity:0;fill-rule:nonzero" />
    <g
       id="g4747"
       transform="translate(-3.673282,0.22958012)">
      <g
         id="g4743">
        <path
           d="m 74.71736,63.44687 0,-26.09375 q 0,-0.390625 0.28125,-0.671875 0.28125,-0.28125 0.671875,-0.28125 0.40625,0 0.703125,0.28125 0.3125,0.28125 0.3125,0.671875 l 0,11.28125 q 1.3125,-1.75 3.265625,-2.78125 1.96875,-1.046875 4.25,-1.046875 3.953125,0 6.71875,2.875 2.765625,2.875 2.765625,6.9375 0,4.0625 -2.765625,6.921875 -2.765625,2.859375 -6.71875,2.859375 -2.28125,0 -4.25,-1.015625 -1.953125,-1.03125 -3.265625,-2.78125 l 0,2.84375 q 0,0.390625 -0.3125,0.671875 -0.296875,0.28125 -0.703125,0.28125 -0.390625,0 -0.671875,-0.28125 -0.28125,-0.28125 -0.28125,-0.671875 z m 1.96875,-9.125 0,0.3125 q 0,3.25 2.21875,5.53125 2.21875,2.28125 5.3125,2.28125 3.09375,0 5.296875,-2.28125 2.203125,-2.28125 2.203125,-5.546875 0,-3.265625 -2.203125,-5.5625 -2.203125,-2.296875 -5.28125,-2.296875 -3.078125,0 -5.265625,2.203125 -2.171875,2.203125 -2.28125,5.359375 z m 24.4781,9.125 0,-17.6875 q 0,-0.40625 0.26563,-0.671875 0.28125,-0.28125 0.70312,-0.28125 0.42188,0 0.70313,0.28125 0.28125,0.265625 0.28125,0.671875 l 0,17.6875 q 0,0.390625 -0.29688,0.671875 -0.29687,0.28125 -0.70312,0.28125 -0.40625,0 -0.6875,-0.28125 -0.26563,-0.28125 -0.26563,-0.671875 z m 0,-23.171875 0,-0.921875 q 0,-0.390625 0.26563,-0.671875 0.28125,-0.28125 0.6875,-0.28125 0.40625,0 0.70312,0.28125 0.29688,0.28125 0.29688,0.671875 l 0,0.921875 q 0,0.4375 -0.29688,0.75 -0.29687,0.296875 -0.70312,0.296875 -0.40625,0 -0.6875,-0.296875 -0.26563,-0.3125 -0.26563,-0.75 z m 17.06812,4.53125 q 0.35937,0 0.65625,0.296875 0.3125,0.296875 0.3125,0.65625 0,0.359375 -0.3125,0.65625 -0.29688,0.296875 -0.65625,0.296875 l -2.51563,0 0,14.28125 q 0,0.640625 0.5,1.046875 0.5,0.40625 0.89063,0.40625 0.40625,0 0.71875,0.328125 0.32812,0.3125 0.32812,0.671875 0,0.359375 -0.32812,0.65625 -0.3125,0.296875 -0.67188,0.296875 -1.46875,0 -2.45312,-0.953125 -0.98438,-0.96875 -0.98438,-2.453125 l 0,-14.28125 -2.4375,0 q -0.64062,0 -0.79687,-0.234375 -0.15625,-0.234375 -0.15625,-0.625 0,-0.40625 0.0312,-0.578125 0.125,-0.46875 0.92187,-0.46875 l 2.4375,0 0,-7.28125 q 0,-0.359375 0.29688,-0.65625 0.3125,-0.3125 0.6875,-0.3125 0.375,0 0.6875,0.3125 0.32812,0.296875 0.32812,0.65625 l 0,7.28125 2.51563,0 z m 11.71873,-1.53125 q 0.0937,4 8.09375,5.53125 l 0.0781,0 q 4.59375,0.828125 7.10937,2.546875 3.09375,2 3.09375,5.3125 0,3.296875 -3.10937,5.546875 -3.09375,2.234375 -7.26563,2.234375 -5.26562,-0.04687 -10.3125,-4.046875 -0.64062,-0.5625 -0.125,-1.234375 0.25,-0.28125 0.60938,-0.3125 0.35937,-0.04687 0.64062,0.1875 4.51563,3.640625 9.1875,3.59375 3.6875,0 6.17188,-1.828125 2.39062,-1.71875 2.39062,-4.171875 0,-4.46875 -8.75,-6.109375 l -0.0781,0 q -9.48438,-1.765625 -9.48438,-7.25 0,-3.109375 2.85938,-5.1875 2.85937,-2.09375 6.8125,-2.09375 1.71875,0 3.45312,0.59375 1.75,0.578125 2.70313,1.125 0.96875,0.53125 2.48437,1.53125 0.71875,0.46875 0.25,1.234375 -0.4375,0.71875 -1.20312,0.234375 -1.4375,-0.90625 -2.34375,-1.421875 -0.89063,-0.53125 -2.39063,-1.03125 -1.5,-0.5 -2.95312,-0.5 -3.35938,0 -5.71875,1.6875 -2.20313,1.640625 -2.20313,3.828125 z m 33.77373,21.125 q -4.20312,0 -7.15625,-2.859375 -2.9375,-2.859375 -2.9375,-6.953125 0,-4.109375 2.9375,-6.9375 2.95313,-2.84375 6.8125,-2.84375 3.85938,0 6.57813,2.15625 0.3125,0.203125 0.35937,0.609375 0.0469,0.390625 -0.23437,0.703125 -0.60938,0.6875 -1.32813,0.171875 -2.20312,-1.765625 -5.32812,-1.765625 -3.10938,0 -5.5,2.328125 -2.375,2.3125 -2.375,5.59375 0,3.28125 2.375,5.578125 2.39062,2.296875 5.48437,2.296875 3.10938,0 5.34375,-1.71875 0.71875,-0.515625 1.34375,0.203125 0.625,0.71875 -0.21875,1.359375 -2.6875,2.078125 -6.15625,2.078125 z m 15.94936,-2.890625 q -2.71875,-2.90625 -2.71875,-6.90625 0,-4 2.71875,-6.890625 2.71875,-2.90625 6.5625,-2.90625 3.84375,0 6.5625,2.90625 2.71875,2.890625 2.71875,6.890625 0,4 -2.71875,6.90625 -2.71875,2.890625 -6.5625,2.890625 -3.84375,0 -6.5625,-2.890625 z m 6.5625,-14.828125 q -3,0 -5.1875,2.328125 -2.17188,2.3125 -2.17188,5.578125 0,3.25 2.17188,5.578125 2.1875,2.3125 5.1875,2.3125 3,0 5.17187,-2.3125 2.1875,-2.328125 2.1875,-5.578125 0,-3.265625 -2.1875,-5.578125 -2.17187,-2.328125 -5.17187,-2.328125 z m 18.43747,14.828125 q -2.71875,-2.90625 -2.71875,-6.90625 0,-4 2.71875,-6.890625 2.71875,-2.90625 6.5625,-2.90625 3.84375,0 6.5625,2.90625 2.71875,2.890625 2.71875,6.890625 0,4 -2.71875,6.90625 -2.71875,2.890625 -6.5625,2.890625 -3.84375,0 -6.5625,-2.890625 z m 6.5625,-14.828125 q -3,0 -5.1875,2.328125 -2.17188,2.3125 -2.17188,5.578125 0,3.25 2.17188,5.578125 2.1875,2.3125 5.1875,2.3125 3,0 5.17187,-2.3125 2.1875,-2.328125 2.1875,-5.578125 0,-3.265625 -2.1875,-5.578125 -2.17187,-2.328125 -5.17187,-2.328125 z m 16.64059,24.953125 0,-25.875 q 0,-0.40625 0.28125,-0.671875 0.28125,-0.28125 0.67188,-0.28125 0.40625,0 0.70312,0.28125 0.3125,0.265625 0.3125,0.671875 l 0,2.84375 q 1.26563,-1.765625 3.21875,-2.78125 1.96875,-1.015625 4.21875,-1.015625 3.95313,0 6.70313,2.84375 2.76562,2.828125 2.76562,6.859375 0,4.015625 -2.76562,6.890625 -2.75,2.875 -6.70313,2.875 -2.25,0 -4.21875,-1.03125 -1.95312,-1.046875 -3.21875,-2.796875 l 0,11.1875 q 0,0.40625 -0.3125,0.6875 -0.29687,0.28125 -0.70312,0.28125 -0.39063,0 -0.67188,-0.28125 -0.28125,-0.28125 -0.28125,-0.6875 z m 1.96875,-17.4375 0,0.328125 q 0,3.234375 2.1875,5.515625 2.20313,2.28125 5.25,2.3125 3.10938,-0.03125 5.3125,-2.3125 2.20313,-2.28125 2.20313,-5.515625 0,-3.25 -2.20313,-5.5 -2.20312,-2.265625 -5.25,-2.265625 -3.03125,0 -5.21875,2.171875 -2.17187,2.15625 -2.28125,5.265625 z m 36.71245,9.25 0,-26.09375 q 0,-0.390625 0.28125,-0.671875 0.28125,-0.28125 0.67188,-0.28125 0.40625,0 0.70312,0.28125 0.29688,0.28125 0.29688,0.671875 l 0,26.09375 q 0,0.390625 -0.29688,0.671875 -0.29687,0.28125 -0.70312,0.28125 -0.39063,0 -0.67188,-0.28125 -0.28125,-0.28125 -0.28125,-0.671875 z m 24.47562,-18.359375 q 0.28125,-0.28125 0.67187,-0.28125 0.40625,0 0.6875,0.28125 0.28125,0.265625 0.28125,0.671875 l 0,17.6875 q 0,0.390625 -0.28125,0.671875 -0.28125,0.28125 -0.6875,0.28125 -0.39062,0 -0.67187,-0.28125 -0.28125,-0.28125 -0.28125,-0.671875 l 0,-2.921875 q -1.28125,1.796875 -3.21875,2.84375 -1.9375,1.03125 -4.14063,1.03125 -3.82812,0 -6.5625,-2.875 -2.71875,-2.890625 -2.71875,-6.921875 0,-4.046875 2.71875,-6.921875 2.73438,-2.875 6.5625,-2.875 2.20313,0 4.14063,1.046875 1.9375,1.03125 3.21875,2.78125 l 0,-2.875 q 0,-0.40625 0.28125,-0.671875 z m -15,9.515625 q 0,3.28125 2.17187,5.578125 2.1875,2.296875 5.20313,2.296875 3.03125,0 5.1875,-2.296875 2.15625,-2.296875 2.15625,-5.578125 0,-3.28125 -2.15625,-5.59375 -2.15625,-2.328125 -5.1875,-2.328125 -3.01563,0 -5.20313,2.328125 -2.17187,2.3125 -2.17187,5.59375 z m 24.9631,8.84375 0,-26.09375 q 0,-0.390625 0.28125,-0.671875 0.28125,-0.28125 0.67188,-0.28125 0.40625,0 0.70312,0.28125 0.3125,0.28125 0.3125,0.671875 l 0,11.28125 q 1.3125,-1.75 3.26563,-2.78125 1.96875,-1.046875 4.25,-1.046875 3.95312,0 6.71875,2.875 2.76562,2.875 2.76562,6.9375 0,4.0625 -2.76562,6.921875 -2.76563,2.859375 -6.71875,2.859375 -2.28125,0 -4.25,-1.015625 -1.95313,-1.03125 -3.26563,-2.78125 l 0,2.84375 q 0,0.390625 -0.3125,0.671875 -0.29687,0.28125 -0.70312,0.28125 -0.39063,0 -0.67188,-0.28125 -0.28125,-0.28125 -0.28125,-0.671875 z m 1.96875,-9.125 0,0.3125 q 0,3.25 2.21875,5.53125 2.21875,2.28125 5.3125,2.28125 3.09375,0 5.29688,-2.28125 2.20312,-2.28125 2.20312,-5.546875 0,-3.265625 -2.20312,-5.5625 -2.20313,-2.296875 -5.28125,-2.296875 -3.07813,0 -5.26563,2.203125 -2.17187,2.203125 -2.28125,5.359375 z m 23.19687,7.28125 q -0.6875,-0.609375 -0.125,-1.28125 0.23437,-0.328125 0.64062,-0.359375 0.40625,-0.04687 0.71875,0.234375 3.125,2.28125 5.67188,2.28125 2.5625,0 4.04687,-1.203125 1.48438,-1 1.45313,-2.328125 -0.0156,-1.34375 -1.3125,-2.375 -1.29688,-1.046875 -4.21875,-1.53125 l -0.0781,-0.04687 q -3.125,-0.546875 -4.4375,-1.515625 -2.125,-1.234375 -2.125,-3.515625 0,-2.28125 2.125,-3.84375 1.92188,-1.3125 4.79688,-1.3125 1.15625,0 2.32812,0.375 1.1875,0.375 1.8125,0.71875 0.625,0.34375 1.70313,1.015625 0.3125,0.25 0.39062,0.65625 0.0781,0.390625 -0.125,0.71875 -0.1875,0.3125 -0.59375,0.390625 -0.39062,0.07813 -0.71875,-0.125 -1,-0.671875 -1.5,-0.96875 -0.5,-0.3125 -1.46875,-0.640625 -0.95312,-0.34375 -1.82812,-0.34375 -2.32813,0 -3.64063,1.0625 -1.3125,1.046875 -1.3125,2.21875 0,1.15625 1.10938,2.03125 1.40625,0.96875 4,1.359375 l 0.0781,0 q 2.60938,0.40625 4.76563,1.609375 2.20312,1.4375 2.20312,3.859375 0,2.421875 -2.1875,4.046875 Q 336.16276,64.4 333.39713,64.4 q -3.79687,-0.04687 -7.23437,-2.796875 z"
           id="path13"
           inkscape:connector-curvature="0"
           style="fill:#2ac1de;fill-rule:nonzero" />
        <path
           d="m 13.501316,50 0,0 c 0,-12.150265 9.849735,-22 22,-22 l 0,0 c 5.834763,0 11.43055,2.31785 15.556351,6.443649 C 55.183464,38.56945 57.501316,44.165237 57.501316,50 l 0,0 c 0,12.150265 -9.849735,22 -22,22 l 0,0 c -12.150265,0 -22,-9.849735 -22,-22 z"
           id="path15"
           inkscape:connector-curvature="0"
           style="fill:#2ac1de;fill-rule:nonzero" />
      </g>
      <path
         style="fill:#ffffff;fill-rule:nonzero"
         inkscape:connector-curvature="0"
         id="path17"
         d="M 25.89693,46.8356 35.550597,68.112196 45.204268,46.8356 Z" />
      <path
         style="fill:#2ac1de;fill-rule:nonzero"
         inkscape:connector-curvature="0"
         id="path19"
         d="m 38.319054,65.8782 -7.026142,1.845924 0.41852,1.60756 7.02614,-1.845925 z" />
      <path
         style="fill:#ffffff;fill-rule:nonzero"
         inkscape:connector-curvature="0"
         id="path21"
         d="m 42.981537,40.963024 0,0 c 0,-3.805809 -3.325954,-6.891026 -7.428726,-6.891026 l 0,0 c -4.10277,0 -7.428724,3.085217 -7.428724,6.891026 l 0,0 c 0,3.805805 3.325954,6.891022 7.428724,6.891022 l 0,0 c 4.102772,0 7.428726,-3.085217 7.428726,-6.891022 z" />
      <path
         style="fill:#2ac1de;fill-rule:nonzero"
         inkscape:connector-curvature="0"
         id="path23"
         d="m 45.73908,46.177696 0,0 c 0,-2.501617 -4.56221,-4.529575 -10.189983,-4.529575 l 0,0 c -5.627773,0 -10.189985,2.027958 -10.189985,4.529575 l 0,0 c 0,2.501614 4.562212,4.529575 10.189985,4.529575 l 0,0 c 5.627773,0 10.189983,-2.027961 10.189983,-4.529575 z" />
      <path
         style="fill:#ffffff;fill-rule:nonzero"
         inkscape:connector-curvature="0"
         id="path25"
         d="m 45.205036,45.123573 0,0 c 0,-2.243687 -4.322094,-4.06255 -9.653667,-4.06255 l 0,0 c -5.331575,0 -9.653669,1.818863 -9.653669,4.06255 l 0,0 c 0,2.243687 4.322094,4.06255 9.653669,4.06255 l 0,0 c 5.331573,0 9.653667,-1.818863 9.653667,-4.06255 z" />
      <path
         style="fill:#ffffff;fill-rule:nonzero"
         inkscape:connector-curvature="0"
         id="path27"
         d="m 45.205017,43.97306 -19.30734,0 0,1.283276 19.30734,0 z" />
      <path
         style="fill:#ffffff;fill-rule:nonzero"
         inkscape:connector-curvature="0"
         id="path29"
         d="m 30.201105,43.730618 0,0 c 0,-1.71405 -1.175142,-3.103558 -2.624756,-3.103558 l 0,0 c -0.696129,0 -1.363745,0.326981 -1.855982,0.909008 -0.492237,0.582032 -0.768774,1.371434 -0.768774,2.19455 l 0,0 c 0,1.714047 1.175144,3.103558 2.624756,3.103558 l 0,0 c 1.449614,0 2.624756,-1.389511 2.624756,-3.103558 z" />
      <path
         style="fill:#ffffff;fill-rule:nonzero"
         inkscape:connector-curvature="0"
         id="path31"
         d="m 46.051037,44.01332 0,0 c 0,-1.870186 -1.175144,-3.386269 -2.624756,-3.386269 l 0,0 c -0.696129,0 -1.363746,0.356766 -1.855984,0.991814 -0.492237,0.635052 -0.768772,1.496361 -0.768772,2.394455 l 0,0 c 0,1.870182 1.175144,3.386269 2.624756,3.386269 l 0,0 c 1.449612,0 2.624756,-1.516087 2.624756,-3.386269 z" />
      <path
         style="fill:#ffffff;fill-rule:nonzero"
         inkscape:connector-curvature="0"
         id="path33"
         d="m 44.43627,44.75166 0,0 c 0,-1.714047 -1.175144,-3.103558 -2.624756,-3.103558 l 0,0 c -0.696129,0 -1.363746,0.326981 -1.855984,0.909012 -0.492237,0.582028 -0.768772,1.371434 -0.768772,2.194546 l 0,0 c 0,1.71405 1.175144,3.103561 2.624756,3.103561 l 0,0 c 1.449612,0 2.624756,-1.389511 2.624756,-3.103561 z" />
      <path
         style="fill:#ffffff;fill-rule:nonzero"
         inkscape:connector-curvature="0"
         id="path35"
         d="m 44.436306,45.693005 0,0 c 0,-1.714047 -0.922928,-3.103558 -2.061417,-3.103558 l 0,0 c -0.546722,0 -1.071048,0.326981 -1.457641,0.909012 -0.386589,0.582031 -0.603775,1.371434 -0.603775,2.194546 l 0,0 c 0,1.71405 0.922928,3.103561 2.061416,3.103561 l 0,0 c 1.138489,0 2.061417,-1.389511 2.061417,-3.103561 z" />
      <path
         style="fill:#ffffff;fill-rule:nonzero"
         inkscape:connector-curvature="0"
         id="path37"
         d="m 41.94206,46.71784 0,0 c 0,-1.71405 -1.175144,-3.103561 -2.624756,-3.103561 l 0,0 c -0.696129,0 -1.363746,0.32698 -1.855984,0.909011 -0.492237,0.582032 -0.768772,1.371434 -0.768772,2.19455 l 0,0 c 0,1.714047 1.175141,3.103558 2.624756,3.103558 l 0,0 c 1.449612,0 2.624756,-1.389511 2.624756,-3.103558 z" />
      <path
         style="fill:#ffffff;fill-rule:nonzero"
         inkscape:connector-curvature="0"
         id="path39"
         d="m 35.76177,46.71783 0,0 c 0,-1.714047 -1.175144,-3.103558 -2.624756,-3.103558 l 0,0 c -0.696129,0 -1.363745,0.326981 -1.855984,0.909012 -0.492237,0.582031 -0.768772,1.371434 -0.768772,2.194546 l 0,0 c 0,1.71405 1.175143,3.103561 2.624756,3.103561 l 0,0 c 1.449612,0 2.624756,-1.389511 2.624756,-3.103561 z" />
      <path
         style="fill:#ffffff;fill-rule:nonzero"
         inkscape:connector-curvature="0"
         id="path41"
         d="m 29.72214,45.12348 0,0 c 0,-1.71405 -0.799767,-3.103561 -1.786329,-3.103561 l 0,0 c -0.473765,0 -0.928126,0.326984 -1.263127,0.909011 -0.335003,0.582032 -0.523204,1.371434 -0.523204,2.19455 l 0,0 c 0,1.714047 0.799766,3.103558 1.786331,3.103558 l 0,0 c 0.986562,0 1.786329,-1.389511 1.786329,-3.103558 z" />
      <path
         style="fill:#ffffff;fill-rule:nonzero"
         inkscape:connector-curvature="0"
         id="path43"
         d="m 32.92795,46.177082 0,0 c 0,-1.714047 -1.147533,-3.103558 -2.563088,-3.103558 l 0,0 c -0.679773,0 -1.331703,0.326981 -1.812376,0.909012 -0.480672,0.582028 -0.750711,1.37143 -0.750711,2.194546 l 0,0 c 0,1.71405 1.147533,3.103558 2.563088,3.103558 l 0,0 c 1.415554,0 2.563087,-1.389508 2.563087,-3.103558 z" />
      <path
         style="fill:#ffffff;fill-rule:nonzero"
         inkscape:connector-curvature="0"
         id="path45"
         d="m 38.68208,47.076626 0,0 c 0,-1.714047 -1.17514,-3.103558 -2.624756,-3.103558 l 0,0 c -0.696129,0 -1.363743,0.326981 -1.85598,0.909012 -0.492237,0.582031 -0.768776,1.371434 -0.768776,2.194546 l 0,0 c 0,1.71405 1.175144,3.103561 2.624756,3.103561 l 0,0 c 1.449616,0 2.624756,-1.389511 2.624756,-3.103561 z" />
    </g>
  </g>
</svg>
