<?xml version="1.0" standalone="yes"?>

<svg version="1.1" viewBox="0.0 0.0 347.28871391076115 120.02887139107611" fill="none" stroke="none" stroke-linecap="square" stroke-miterlimit="10" xmlns="http://www.w3.org/2000/svg" xmlns:xlink="http://www.w3.org/1999/xlink"><clipPath id="p.0"><path d="m0 0l347.28873 0l0 120.02887l-347.28873 0l0 -120.02887z" clip-rule="nonzero"></path></clipPath><g clip-path="url(#p.0)"><path fill="#000000" fill-opacity="0.0" d="m0 0l347.28873 0l0 120.02887l-347.28873 0z" fill-rule="nonzero"></path><path fill="#2ac1de" d="m7.9986877 60.998867l0 0c0 -29.271093 23.728909 -53.0 53.0 -53.0l0 0c14.056473 0 27.537231 5.583912 37.47666 15.523341c9.939423 9.939428 15.523338 23.420183 15.523338 37.47666l0 0c0 29.271091 -23.728905 52.999996 -53.0 52.999996l0 0c-29.271091 0 -53.0 -23.728905 -53.0 -52.999996z" fill-rule="nonzero"></path><path fill="#ffffff" d="m37.860847 53.37554l23.256569 51.257263l23.256569 -51.257263z" fill-rule="nonzero"></path><path fill="#2ac1de" d="m67.78687 99.250885l-16.926613 4.446991l1.0082512 3.872757l16.926617 -4.446991z" fill-rule="nonzero"></path><path fill="#ffffff" d="m79.01922 39.227966l0 0c0 -9.168535 -8.012527 -16.6011 -17.896473 -16.6011l0 0c-9.883949 0 -17.896473 7.4325657 -17.896473 16.6011l0 0c0 9.168537 8.012524 16.601105 17.896473 16.601105l0 0c9.883945 0 17.896473 -7.4325676 17.896473 -16.601105z" fill-rule="nonzero"></path><path fill="#2ac1de" d="m85.66239 51.79059l0 0c0 -6.026619 -10.990784 -10.912159 -24.5486 -10.912159l0 0c-13.557819 0 -24.5486 4.88554 -24.5486 10.912159l0 0c0 6.026619 10.99078 10.912155 24.5486 10.912155l0 0c13.557816 0 24.5486 -4.885536 24.5486 -10.912155z" fill-rule="nonzero"></path><path fill="#ffffff" d="m84.37583 49.25111l0 0c0 -5.405239 -10.412315 -9.787056 -23.256565 -9.787056l0 0c-12.844246 0 -23.256565 4.381817 -23.256565 9.787056l0 0c0 5.405243 10.412319 9.787056 23.256565 9.787056l0 0c12.84425 0 23.256565 -4.381813 23.256565 -9.787056z" fill-rule="nonzero"></path><path fill="#ffffff" d="m84.375786 46.479416l-46.513138 0l0 3.0915298l46.513138 0z" fill-rule="nonzero"></path><path fill="#ffffff" d="m48.23 45.89535l0 0c0 -4.1292953 -2.831028 -7.476753 -6.3232765 -7.476753l0 0c-1.6770363 0 -3.2853851 0.78772736 -4.4712296 2.189888c-1.1858444 1.4021645 -1.8520432 3.3039093 -1.8520432 5.286865l0 0c0 4.129299 2.8310242 7.476757 6.3232727 7.476757l0 0c3.4922485 0 6.3232765 -3.347458 6.3232765 -7.476757z" fill-rule="nonzero"></path><path fill="#ffffff" d="m86.413925 46.576412l0 0c0 -4.5054436 -2.8310242 -8.157829 -6.3232727 -8.157829l0 0c-1.6770401 0 -3.2853851 0.8594818 -4.4712296 2.3893738c-1.1858444 1.5298882 -1.8520508 3.6048622 -1.8520508 5.7684555l0 0c0 4.5054398 2.8310318 8.157825 6.3232803 8.157825l0 0c3.4922485 0 6.3232727 -3.6523857 6.3232727 -8.157825z" fill-rule="nonzero"></path><path fill="#ffffff" d="m82.52381 48.355137l0 0c0 -4.1292953 -2.8310318 -7.476753 -6.3232803 -7.476753l0 0c-1.6770325 0 -3.2853851 0.78772736 -4.4712296 2.189888c-1.1858444 1.4021645 -1.8520432 3.3039093 -1.8520432 5.286865l0 0c0 4.129299 2.8310242 7.476757 6.3232727 7.476757l0 0c3.4922485 0 6.3232803 -3.347458 6.3232803 -7.476757z" fill-rule="nonzero"></path><path fill="#ffffff" d="m82.523895 50.62293l0 0c0 -4.129299 -2.2234192 -7.476757 -4.9661407 -7.476757l0 0c-1.3171005 0 -2.5802612 0.78772736 -3.5115967 2.1898918c-0.9313278 1.4021606 -1.4545441 3.3039055 -1.4545441 5.286865l0 0c0 4.1292953 2.2234116 7.476753 4.9661407 7.476753l0 0c2.7427216 0 4.9661407 -3.347458 4.9661407 -7.476753z" fill-rule="nonzero"></path><path fill="#ffffff" d="m76.51502 53.09184l0 0c0 -4.129299 -2.8310318 -7.476757 -6.3232803 -7.476757l0 0c-1.6770325 0 -3.2853851 0.78772736 -4.4712296 2.1898918c-1.1858444 1.4021606 -1.8520432 3.3039055 -1.8520432 5.286865l0 0c0 4.1292953 2.8310242 7.476753 6.3232727 7.476753l0 0c3.4922485 0 6.3232803 -3.347458 6.3232803 -7.476753z" fill-rule="nonzero"></path><path fill="#ffffff" d="m61.62614 53.091824l0 0c0 -4.129299 -2.831028 -7.476757 -6.3232765 -7.476757l0 0c-1.6770363 0 -3.2853851 0.78772736 -4.4712296 2.1898918c-1.1858444 1.4021645 -1.8520432 3.3039055 -1.8520432 5.286865l0 0c0 4.129299 2.8310242 7.476757 6.3232727 7.476757l0 0c3.4922485 0 6.3232765 -3.347458 6.3232765 -7.476757z" fill-rule="nonzero"></path><path fill="#ffffff" d="m47.07613 49.25089l0 0c0 -4.129299 -1.9267159 -7.476757 -4.3034363 -7.476757l0 0c-1.1413383 0 -2.2359352 0.78772736 -3.042984 2.1898918c-0.8070526 1.4021645 -1.2604485 3.3039055 -1.2604485 5.286865l0 0c0 4.129299 1.926712 7.476757 4.3034325 7.476757l0 0c2.3767204 0 4.3034363 -3.347458 4.3034363 -7.476757z" fill-rule="nonzero"></path><path fill="#ffffff" d="m54.799217 51.78911l0 0c0 -4.1292953 -2.764511 -7.476753 -6.1747093 -7.476753l0 0c-1.6376343 0 -3.2081947 0.78772736 -4.3661766 2.189888c-1.1579819 1.4021645 -1.8085289 3.3039093 -1.8085289 5.286865l0 0c0 4.129299 2.764511 7.476757 6.1747055 7.476757l0 0c3.4101982 0 6.1747093 -3.347458 6.1747093 -7.476757z" fill-rule="nonzero"></path><path fill="#ffffff" d="m68.66144 53.956196l0 0c0 -4.129299 -2.8310242 -7.476757 -6.3232727 -7.476757l0 0c-1.6770401 0 -3.285389 0.78772736 -4.4712334 2.1898918c-1.1858444 1.4021645 -1.8520432 3.3039055 -1.8520432 5.286865l0 0c0 4.129299 2.831028 7.476757 6.3232765 7.476757l0 0c3.4922485 0 6.3232727 -3.347458 6.3232727 -7.476757z" fill-rule="nonzero"></path><path fill="#000000" fill-opacity="0.0" d="m116.026245 26.574802l317.6378 0l0 68.85039l-317.6378 0z" fill-rule="nonzero"></path><path fill="#2ac1de" d="m129.495 47.923748l0 -31.296875q0 -0.46875 0.328125 -0.79687405q0.34375 -0.34375 0.8125 -0.34375q0.484375 0 0.84375 0.34375q0.359375 0.32812405 0.359375 0.79687405l0 13.546875q1.59375 -2.125 3.9375 -3.359375q2.359375 -1.25 5.09375 -1.25q4.75 0 8.0625 3.453125q3.3125 3.453125 3.3125 8.328125q0 4.875 -3.3125 8.3125q-3.3125 3.421875 -8.0625 3.421875q-2.734375 0 -5.09375 -1.21875q-2.34375 -1.234375 -3.9375 -3.34375l0 3.40625q0 0.484375 -0.359375 0.828125q-0.359375 0.328125 -0.84375 0.328125q-0.46875 0 -0.8125 -0.328125q-0.328125 -0.34375 -0.328125 -0.828125zm2.34375 -10.9375l0 0.375q0 3.890625 2.65625 6.625q2.671875 2.734375 6.390625 2.734375q3.71875 0 6.359375 -2.734375q2.640625 -2.734375 2.640625 -6.640625q0 -3.90625 -2.640625 -6.671875q-2.640625 -2.765625 -6.34375 -2.765625q-3.6875 0 -6.3125 2.640625q-2.609375 2.640625 -2.75 6.4375zm29.383194 10.9375l0 -21.21875q0 -0.46875 0.328125 -0.796875q0.34375 -0.34375 0.84375 -0.34375q0.5 0 0.828125 0.34375q0.34375 0.328125 0.34375 0.796875l0 21.21875q0 0.484375 -0.359375 0.828125q-0.359375 0.328125 -0.84375 0.328125q-0.46875 0 -0.8125 -0.328125q-0.328125 -0.34375 -0.328125 -0.828125zm0 -27.78125l0 -1.109375q0 -0.484375 0.328125 -0.8125q0.34375 -0.34375 0.8125 -0.34375q0.484375 0 0.84375 0.34375q0.359375 0.328125 0.359375 0.8125l0 1.109375q0 0.515625 -0.359375 0.875q-0.359375 0.359375 -0.84375 0.359375q-0.46875 0 -0.8125 -0.359375q-0.328125 -0.359375 -0.328125 -0.875zm20.488022 5.421875q0.4375 0 0.796875 0.359375q0.359375 0.359375 0.359375 0.796875q0 0.421875 -0.359375 0.78125q-0.359375 0.359375 -0.796875 0.359375l-3.015625 0l0 17.140625q0 0.765625 0.59375 1.25q0.609375 0.46875 1.078125 0.46875q0.484375 0 0.859375 0.390625q0.390625 0.390625 0.390625 0.828125q0 0.421875 -0.390625 0.78125q-0.375 0.359375 -0.8125 0.359375q-1.765625 0 -2.953125 -1.140625q-1.171875 -1.15625 -1.171875 -2.9375l0 -17.140625l-2.921875 0q-0.765625 0 -0.96875 -0.28125q-0.1875 -0.296875 -0.1875 -0.765625q0 -0.484375 0.046875 -0.671875q0.140625 -0.578125 1.109375 -0.578125l2.921875 0l0 -8.734375q0 -0.4375 0.359375 -0.796875q0.359375 -0.35937405 0.8125 -0.35937405q0.46875 0 0.84375 0.35937405q0.390625 0.359375 0.390625 0.796875l0 8.734375l3.015625 0zm14.075043 -1.828125q0.09375 4.796875 9.6875 6.625l0.09375 0q5.53125 1.0 8.546875 3.078125q3.703125 2.390625 3.703125 6.359375q0 3.953125 -3.734375 6.640625q-3.71875 2.6875 -8.703125 2.6875q-6.34375 -0.046875 -12.390625 -4.84375q-0.765625 -0.671875 -0.140625 -1.484375q0.296875 -0.34375 0.71875 -0.390625q0.4375 -0.046875 0.765625 0.234375q5.4375 4.375 11.046875 4.328125q4.421875 0 7.390625 -2.203125q2.875 -2.078125 2.875 -5.0q0 -5.375 -10.5 -7.34375l-0.109375 0q-11.375 -2.109375 -11.375 -8.6875q0 -3.75 3.4375 -6.234375q3.4375 -2.499999 8.1875 -2.499999q2.0625 0 4.140625 0.703125q2.09375 0.68749905 3.25 1.343749q1.15625 0.640625 2.96875 1.84375q0.875 0.578125 0.296875 1.484375q-0.53125 0.859375 -1.4375 0.28125q-1.734375 -1.09375 -2.8125 -1.71875q-1.078125 -0.625 -2.890625 -1.21875q-1.796875 -0.609375 -3.515625 -0.609375q-4.03125 0 -6.859375 2.015625q-2.640625 1.96875 -2.640625 4.609375zm40.500443 25.34375q-5.03125 0 -8.5625 -3.421875q-3.53125 -3.4375 -3.53125 -8.359375q0 -4.921875 3.53125 -8.328125q3.53125 -3.40625 8.15625 -3.40625q4.640625 0 7.90625 2.59375q0.375 0.234375 0.421875 0.71875q0.046875 0.46875 -0.28125 0.859375q-0.71875 0.8125 -1.59375 0.1875q-2.640625 -2.109375 -6.390625 -2.109375q-3.734375 0 -6.59375 2.78125q-2.84375 2.78125 -2.84375 6.71875q0 3.9375 2.84375 6.703125q2.859375 2.765625 6.578125 2.765625q3.71875 0 6.40625 -2.078125q0.875 -0.609375 1.609375 0.25q0.75 0.859375 -0.265625 1.625q-3.203125 2.5 -7.390625 2.5zm19.15805 -3.46875q-3.265625 -3.484375 -3.265625 -8.28125q0 -4.8125 3.265625 -8.28125q3.2656403 -3.484375 7.8750153 -3.484375q4.609375 0 7.859375 3.484375q3.265625 3.46875 3.265625 8.28125q0 4.796875 -3.265625 8.28125q-3.25 3.46875 -7.859375 3.46875q-4.609375 0 -7.8750153 -3.46875zm7.8593903 -17.796875q-3.59375 0 -6.21875 2.78125q-2.6093903 2.78125 -2.6093903 6.703125q0 3.90625 2.6093903 6.703125q2.625 2.78125 6.21875 2.78125q3.609375 0 6.21875 -2.78125q2.625 -2.796875 2.625 -6.703125q0 -3.921875 -2.625 -6.703125q-2.609375 -2.78125 -6.21875 -2.78125zm22.140686 17.796875q-3.265625 -3.484375 -3.265625 -8.28125q0 -4.8125 3.265625 -8.28125q3.265625 -3.484375 7.875 -3.484375q4.609375 0 7.859375 3.484375q3.265625 3.46875 3.265625 8.28125q0 4.796875 -3.265625 8.28125q-3.25 3.46875 -7.859375 3.46875q-4.609375 0 -7.875 -3.46875zm7.859375 -17.796875q-3.59375 0 -6.21875 2.78125q-2.609375 2.78125 -2.609375 6.703125q0 3.90625 2.609375 6.703125q2.625 2.78125 6.21875 2.78125q3.609375 0 6.21875 -2.78125q2.625 -2.796875 2.625 -6.703125q0 -3.921875 -2.625 -6.703125q-2.609375 -2.78125 -6.21875 -2.78125zm19.984436 29.953125l0 -31.0625q0 -0.46875 0.328125 -0.796875q0.34375 -0.34375 0.8125 -0.34375q0.484375 0 0.84375 0.34375q0.359375 0.328125 0.359375 0.796875l0 3.421875q1.546875 -2.125 3.890625 -3.34375q2.359375 -1.21875 5.046875 -1.21875q4.75 0 8.0625 3.40625q3.3125 3.40625 3.3125 8.234375q0 4.8125 -3.3125 8.28125q-3.3125 3.453125 -8.0625 3.453125q-2.6875 0 -5.046875 -1.25q-2.34375 -1.25 -3.890625 -3.359375l0 13.4375q0 0.484375 -0.359375 0.8125q-0.359375 0.34375 -0.84375 0.34375q-0.46875 0 -0.8125 -0.34375q-0.328125 -0.328125 -0.328125 -0.8125zm2.34375 -20.921875l0 0.375q0 3.890625 2.640625 6.625q2.640625 2.734375 6.296875 2.78125q3.734375 -0.046875 6.375 -2.78125q2.640625 -2.734375 2.640625 -6.625q0 -3.890625 -2.640625 -6.59375q-2.640625 -2.71875 -6.296875 -2.71875q-3.640625 0 -6.265625 2.59375q-2.609375 2.59375 -2.75 6.34375z" fill-rule="nonzero"></path><path fill="#2ac1de" d="m148.44812 107.08l-17.28125 0q-0.484375 0 -0.828125 -0.328125q-0.328125 -0.34375 -0.328125 -0.828125l0 -31.296875q0 -0.46875 0.328125 -0.796875q0.34375 -0.34375 0.828125 -0.34375q0.484375 0 0.84375 0.34375q0.359375 0.328125 0.359375 0.796875l0 30.09375l16.078125 0q0.484375 0 0.84375 0.375q0.359375 0.359375 0.359375 0.84375q0 0.46875 -0.359375 0.8125q-0.359375 0.328125 -0.84375 0.328125zm25.820923 -23.171875q0.34375 -0.34375 0.8125 -0.34375q0.484375 0 0.8125 0.34375q0.34375 0.328125 0.34375 0.796875l0 21.21875q0 0.484375 -0.34375 0.828125q-0.328125 0.328125 -0.8125 0.328125q-0.46875 0 -0.8125 -0.328125q-0.328125 -0.34375 -0.328125 -0.828125l0 -3.5q-1.53125 2.15625 -3.859375 3.40625q-2.328125 1.25 -4.96875 1.25q-4.609375 0 -7.875 -3.453125q-3.265625 -3.453125 -3.265625 -8.296875q0 -4.859375 3.265625 -8.3125q3.265625 -3.453125 7.875 -3.453125q2.640625 0 4.96875 1.25q2.328125 1.234375 3.859375 3.359375l0 -3.46875q0 -0.46875 0.328125 -0.796875zm-18.0 11.40625q0 3.9375 2.609375 6.703125q2.625 2.765625 6.25 2.765625q3.625 0 6.21875 -2.765625q2.59375 -2.765625 2.59375 -6.703125q0 -3.9375 -2.59375 -6.71875q-2.59375 -2.78125 -6.21875 -2.78125q-3.625 0 -6.25 2.78125q-2.609375 2.78125 -2.609375 6.71875zm29.962067 10.609375l0 -31.296875q0 -0.46875 0.328125 -0.796875q0.34375 -0.34375 0.8125 -0.34375q0.484375 0 0.84375 0.34375q0.359375 0.328125 0.359375 0.796875l0 13.546875q1.59375 -2.125 3.9375 -3.359375q2.359375 -1.25 5.09375 -1.25q4.75 0 8.0625 3.453125q3.3125 3.453125 3.3125 8.328125q0 4.875 -3.3125 8.3125q-3.3125 3.421875 -8.0625 3.421875q-2.734375 0 -5.09375 -1.21875q-2.34375 -1.234375 -3.9375 -3.34375l0 3.40625q0 0.484375 -0.359375 0.828125q-0.359375 0.328125 -0.84375 0.328125q-0.46875 0 -0.8125 -0.328125q-0.328125 -0.34375 -0.328125 -0.828125zm2.34375 -10.9375l0 0.375q0 3.890625 2.65625 6.625q2.671875 2.734375 6.390625 2.734375q3.71875 0 6.359375 -2.734375q2.640625 -2.734375 2.640625 -6.640625q0 -3.90625 -2.640625 -6.671875q-2.640625 -2.765625 -6.34375 -2.765625q-3.6875 0 -6.3125 2.640625q-2.609375 2.640625 -2.75 6.4375zm27.836319 8.734375q-0.8125 -0.71875 -0.140625 -1.53125q0.296875 -0.390625 0.765625 -0.4375q0.484375 -0.046875 0.875 0.28125q3.734375 2.75 6.8125 2.75q3.078125 0 4.84375 -1.453125q1.78125 -1.1875 1.75 -2.796875q-0.015625 -1.609375 -1.578125 -2.859375q-1.5625 -1.25 -5.0625 -1.828125l-0.09375 -0.046875q-3.75 -0.671875 -5.328125 -1.828125q-2.546875 -1.484375 -2.546875 -4.21875q0 -2.734375 2.546875 -4.609375q2.296875 -1.578125 5.75 -1.578125q1.390625 0 2.8125 0.453125q1.421875 0.453125 2.15625 0.859375q0.75 0.40625 2.046875 1.234375q0.375 0.28125 0.46875 0.765625q0.109375 0.46875 -0.140625 0.859375q-0.234375 0.390625 -0.71875 0.484375q-0.46875 0.09375 -0.859375 -0.15625q-1.203125 -0.8125 -1.8125 -1.171875q-0.59375 -0.359375 -1.75 -0.765625q-1.140625 -0.40625 -2.203125 -0.40625q-2.78125 0 -4.375 1.28125q-1.578125 1.265625 -1.578125 2.65625q0 1.390625 1.34375 2.453125q1.6875 1.140625 4.8125 1.625l0.09375 0q3.109375 0.484375 5.703125 1.921875q2.640625 1.71875 2.640625 4.625q0 2.90625 -2.625 4.859375q-2.609375 1.9375 -5.921875 1.9375q-4.546875 -0.046875 -8.6875 -3.359375z" fill-rule="nonzero"></path></g></svg>

